<svg xmlns="http://www.w3.org/2000/svg" width="691" height="693" viewBox="0 0 691 693" version="1.1">
	<path d="M 33 353 L 33 533 60.494 533 L 87.988 533 88.244 450.373 L 88.500 367.746 130.463 450.373 L 172.426 533 226.463 532.998 L 280.500 532.996 288.414 497.248 C 292.767 477.587, 296.741 459.587, 297.245 457.250 L 298.162 453 334.014 453 C 367.292 453, 369.903 453.126, 370.388 454.750 C 370.675 455.712, 374.538 471.745, 378.973 490.378 C 383.407 509.010, 387.531 526.223, 388.136 528.628 L 389.237 533 418.119 533 C 434.003 533, 447 532.635, 447 532.189 C 447 531.743, 429 450.933, 407 352.612 C 385 254.291, 367 173.656, 367 173.424 C 367 173.191, 353.080 173, 336.067 173 C 307.474 173, 305.095 173.132, 304.611 174.750 C 304.117 176.399, 228.692 508.657, 227.172 515.878 C 226.508 519.035, 223.650 513.958, 183.546 438.378 C 159.943 393.895, 139.300 355.025, 137.672 352 L 134.714 346.500 181.980 261 C 207.976 213.975, 229.466 174.931, 229.736 174.235 C 230.125 173.229, 224.029 173.024, 199.915 173.235 L 169.605 173.500 129.052 249.148 L 88.500 324.795 88.244 248.898 L 87.988 173 60.494 173 L 33 173 33 353 M 473 353.099 L 473 533.198 535.750 532.717 C 599.921 532.224, 606.144 531.874, 620.356 527.958 C 644.845 521.210, 659.640 505.183, 665.270 479.305 C 667.241 470.249, 667.404 466.558, 667.409 431 C 667.415 386.476, 666.923 382.527, 659.439 367.020 C 655.537 358.935, 653.561 356.253, 646.011 348.796 L 637.159 340.053 642.046 335.961 C 651.934 327.683, 659.698 312.544, 662.559 295.965 C 664.867 282.592, 664.153 226.465, 661.562 217.500 C 656.232 199.065, 642.890 185.444, 623 178.133 C 609.810 173.284, 605.049 173, 536.890 173 L 473 173 473 353.099 M 527 267.970 L 527 325.116 554.750 324.791 C 578.548 324.513, 583.212 324.208, 587.500 322.647 C 597.761 318.910, 603.543 313.242, 607.347 303.190 C 609.352 297.891, 609.521 295.385, 609.804 266.691 C 610.166 229.933, 609.734 227.320, 602.066 219.897 C 594.015 212.102, 592.009 211.715, 557.250 211.239 L 527 210.824 527 267.970 M 318.906 342.328 L 303.323 415.500 319.225 415.775 C 327.970 415.926, 342 415.926, 350.403 415.775 L 365.679 415.500 350.406 342.650 C 342.006 302.582, 334.988 269.655, 334.811 269.478 C 334.634 269.301, 327.477 302.083, 318.906 342.328 M 527 430.551 L 527 494.103 559.250 493.749 C 595.689 493.350, 597.286 493.090, 603.613 486.521 C 611.789 478.033, 613.344 467.221, 612.760 422.949 C 612.414 396.751, 612.058 390.621, 610.629 386.236 C 608.403 379.404, 604.260 374.788, 597.897 372.051 C 588.055 367.817, 581.125 367.036, 553.250 367.017 L 527 367 527 430.551" stroke="none" fill="#007cdb" fill-rule="evenodd"/>
</svg>